<svg width="127" height="69" viewBox="0 0 127 69" fill="none" xmlns="http://www.w3.org/2000/svg">
<ellipse cx="63.5" cy="34.5" rx="63.5" ry="34.5" fill="url(#paint0_linear)"/>
<rect x="0.382029" y="0.619375" width="3.84279" height="4.52154" rx="0.5" transform="matrix(0.965794 0.25931 -0.201736 0.97944 70.3626 43.7437)" fill="white" stroke="black"/>
<path d="M71.4681 25.3308C71.1489 26.8807 70.4105 28.1424 69.4985 28.9361C68.5862 29.7301 67.5317 30.0349 66.5392 29.7684C65.5468 29.5019 64.7217 28.6925 64.215 27.5175C63.7084 26.3429 63.5399 24.8377 63.8592 23.2878C64.1784 21.7379 64.9168 20.4762 65.8288 19.6825C66.7411 18.8886 67.7956 18.5837 68.7881 18.8502C69.7805 19.1167 70.6056 19.9261 71.1123 21.1011C71.6189 22.2757 71.7874 23.7809 71.4681 25.3308Z" fill="#02C2FF" fill-opacity="0.68" stroke="black"/>
<ellipse rx="2.01783" ry="2.76077" transform="matrix(0.965794 0.25931 -0.201736 0.97944 67.6643 24.3095)" fill="black"/>
<path d="M87.8383 29.7259C87.519 31.2758 86.7806 32.5375 85.8687 33.3312C84.9564 34.1252 83.9018 34.43 82.9094 34.1636C81.9169 33.8971 81.0919 33.0876 80.5851 31.9126C80.0785 30.7381 79.9101 29.2329 80.2293 27.683C80.5485 26.1331 81.2869 24.8714 82.1989 24.0777C83.1112 23.2837 84.1658 22.9789 85.1582 23.2453C86.1506 23.5118 86.9757 24.3213 87.4824 25.4963C87.989 26.6708 88.1575 28.176 87.8383 29.7259Z" fill="#02C2FF" fill-opacity="0.68" stroke="black"/>
<ellipse rx="2.01783" ry="2.76077" transform="matrix(0.965794 0.25931 -0.201736 0.97944 84.034 28.7047)" fill="black"/>
<path d="M71.9972 45.621L71.9965 45.6213L71.9921 45.6235L71.972 45.6331C71.9538 45.6417 71.9261 45.6548 71.8893 45.6717C71.8158 45.7055 71.7064 45.7546 71.5661 45.8141C71.2852 45.9333 70.8815 46.094 70.3937 46.2584C69.4136 46.5887 68.115 46.9268 66.8019 46.9831C65.4832 47.0397 64.2119 46.8097 63.2259 46.0739C62.2596 45.3526 61.4767 44.0764 61.25 41.84C61.1488 40.4939 61.5418 38.5275 62.3615 36.3351C63.1772 34.1533 64.3956 31.8003 65.8909 29.6987C67.388 27.5944 69.1472 25.7639 71.0355 24.6024C72.921 23.4427 74.9019 22.9682 76.8798 23.4992C78.864 24.032 80.4218 25.4088 81.6107 27.3213C82.8032 29.2397 83.6081 31.6741 84.0741 34.2499C84.5394 36.8219 84.6618 39.5079 84.5075 41.9103C84.3527 44.3202 83.9218 46.4092 83.3037 47.8038C82.3809 49.8861 81.2804 50.6997 80.2241 50.8868C79.1417 51.0785 77.9557 50.6419 76.8 49.8853C75.6531 49.1343 74.6077 48.1145 73.842 47.2701C73.461 46.8501 73.1535 46.4782 72.9418 46.212C72.836 46.079 72.7544 45.9727 72.6996 45.9003C72.6723 45.8641 72.6517 45.8364 72.6381 45.8181L72.6232 45.7978L72.6199 45.7932L72.6192 45.7923L72.6192 45.7923L72.6191 45.7922L72.3648 45.4406L71.9974 45.6209L71.9974 45.6209L71.9972 45.621Z" fill="#02C2FF" stroke="black"/>
<path d="M72.4514 44.9987L75.0781 42.6222L71.0276 41.5346L72.4514 44.9987Z" fill="#BB39F9" fill-opacity="0.85"/>
<path d="M71.8567 42.2741L72.6267 44.1475L74.0473 42.8622L71.8567 42.2741Z" stroke="#BB39F9" stroke-opacity="0.85"/>
<path d="M69.4056 32.3059C69.4848 31.9215 69.8563 31.6924 70.2354 31.7941C70.6145 31.8959 70.8576 32.2901 70.7784 32.6745L69.9302 36.7925C69.851 37.177 69.4796 37.4061 69.1005 37.3043C68.7214 37.2025 68.4783 36.8084 68.5575 36.4239L69.4056 32.3059Z" fill="black" stroke="black"/>
<rect x="0.382029" y="0.619375" width="1.4214" height="5.62585" rx="0.710698" transform="matrix(0.965794 0.25931 -0.201736 0.97944 77.8797 33.2066)" fill="black" stroke="black"/>
<line x1="0.5" y1="-0.5" x2="10.2226" y2="-0.5" transform="matrix(-0.986637 -0.0520078 0.0925542 -1.00228 69.4995 41.3529)" stroke="black" stroke-linecap="round"/>
<line x1="0.5" y1="-0.5" x2="10.0507" y2="-0.5" transform="matrix(-0.939374 -0.360401 0.255632 -0.963339 69.7227 40.2712)" stroke="black" stroke-linecap="round"/>
<line x1="0.5" y1="-0.5" x2="10.8846" y2="-0.5" transform="matrix(-0.968407 0.141028 -0.0150847 -1.01247 70.0562 42.6437)" stroke="black" stroke-linecap="round"/>
<line x1="0.5" y1="-0.5" x2="10.2226" y2="-0.5" transform="matrix(0.903531 0.455492 0.308392 -0.94433 76.5166 43.2365)" stroke="black" stroke-linecap="round"/>
<line x1="0.5" y1="-0.5" x2="10.0507" y2="-0.5" transform="matrix(0.981604 0.155371 0.147204 -0.992452 76.7388 42.1549)" stroke="black" stroke-linecap="round"/>
<line x1="0.5" y1="-0.5" x2="10.8846" y2="-0.5" transform="matrix(0.811859 0.619019 0.408726 -0.898678 75.5132 44.1086)" stroke="black" stroke-linecap="round"/>
<mask id="path-18-outside-1" maskUnits="userSpaceOnUse" x="32.0117" y="16.6674" width="34.9393" height="37.2653" fill="black">
<rect fill="white" x="32.0117" y="16.6674" width="34.9393" height="37.2653"/>
<path fill-rule="evenodd" clip-rule="evenodd" d="M61.0693 24.6629C61.3885 26.9386 60.5621 29.0961 59.1067 30.2443C61.5916 34.2259 62.9387 39.0421 62.6658 41.9933C62.103 48.0783 56.9325 47.3609 53.6702 46.2728L53.8089 47.2618C53.8856 47.8087 53.5074 48.3326 52.9641 48.4319L50.0503 48.9647C49.507 49.064 49.0044 48.7011 48.9277 48.1542L48.7793 47.0963C46.0161 49.1552 41.3478 51.4756 38.6666 46.3812C37.5262 44.0593 37.5881 38.9652 38.9914 34.1689C37.0423 33.8288 35.3904 31.9457 35.0365 29.4226C34.6059 26.3525 36.2601 23.4975 38.7312 23.0457C40.6909 22.6874 42.5759 23.9481 43.487 26.0163C44.7595 24.7872 46.2568 23.919 47.9876 23.6026C49.4673 23.332 50.8743 23.4879 52.1897 23.9638C52.6153 21.8949 53.9932 20.2553 55.8152 19.9222C58.2863 19.4703 60.6387 21.5928 61.0693 24.6629Z"/>
</mask>
<path fill-rule="evenodd" clip-rule="evenodd" d="M61.0693 24.6629C61.3885 26.9386 60.5621 29.0961 59.1067 30.2443C61.5916 34.2259 62.9387 39.0421 62.6658 41.9933C62.103 48.0783 56.9325 47.3609 53.6702 46.2728L53.8089 47.2618C53.8856 47.8087 53.5074 48.3326 52.9641 48.4319L50.0503 48.9647C49.507 49.064 49.0044 48.7011 48.9277 48.1542L48.7793 47.0963C46.0161 49.1552 41.3478 51.4756 38.6666 46.3812C37.5262 44.0593 37.5881 38.9652 38.9914 34.1689C37.0423 33.8288 35.3904 31.9457 35.0365 29.4226C34.6059 26.3525 36.2601 23.4975 38.7312 23.0457C40.6909 22.6874 42.5759 23.9481 43.487 26.0163C44.7595 24.7872 46.2568 23.919 47.9876 23.6026C49.4673 23.332 50.8743 23.4879 52.1897 23.9638C52.6153 21.8949 53.9932 20.2553 55.8152 19.9222C58.2863 19.4703 60.6387 21.5928 61.0693 24.6629Z" fill="white"/>
<path d="M59.1067 30.2443L57.9249 28.6744L56.4573 29.8322L57.4153 31.3673L59.1067 30.2443ZM62.6658 41.9933L60.6876 41.8841L60.6876 41.8841L62.6658 41.9933ZM53.6702 46.2728L54.3578 44.3582L51.2378 43.3176L51.7028 46.6325L53.6702 46.2728ZM52.9641 48.4319L52.6863 46.4513L52.9641 48.4319ZM50.0503 48.9647L50.3281 50.9453L50.0503 48.9647ZM48.9277 48.1542L46.9603 48.5139L48.9277 48.1542ZM48.7793 47.0963L50.7467 46.7366L50.2949 43.5155L47.6436 45.4911L48.7793 47.0963ZM38.6666 46.3812L36.8807 47.3341L36.8926 47.3583L36.9051 47.3821L38.6666 46.3812ZM38.9914 34.1689L40.8946 34.6704L41.5141 32.553L39.403 32.1846L38.9914 34.1689ZM43.487 26.0163L41.6671 26.8963L42.7808 29.4244L44.828 27.4471L43.487 26.0163ZM47.9876 23.6026L47.7098 21.622L47.9876 23.6026ZM52.1897 23.9638L51.4568 25.8627L53.6495 26.6561L54.1342 24.2996L52.1897 23.9638ZM55.8152 19.9222L56.093 21.9028L55.8152 19.9222ZM60.2884 31.8142C62.4309 30.124 63.4389 27.1711 63.0367 24.3032L59.1019 25.0226C59.338 26.7061 58.6934 28.0682 57.9249 28.6744L60.2884 31.8142ZM64.644 42.1026C64.8131 40.274 64.4776 38.0595 63.8255 35.8577C63.1646 33.6263 62.1365 31.2659 60.798 29.1213L57.4153 31.3673C58.5618 33.2043 59.4497 35.2428 60.0154 37.1527C60.5898 39.0922 60.7914 40.7614 60.6876 41.8841L64.644 42.1026ZM52.9826 48.1874C54.6812 48.7539 57.2392 49.3659 59.5867 48.7757C60.8268 48.4639 62.0559 47.8034 63.0079 46.609C63.9466 45.4312 64.4769 43.9089 64.644 42.1026L60.6876 41.8841C60.5733 43.1202 60.2462 43.7901 59.9552 44.1553C59.6775 44.5037 59.3046 44.7368 58.7739 44.8703C57.5799 45.1705 55.9215 44.8797 54.3578 44.3582L52.9826 48.1874ZM55.7763 46.9021L55.6376 45.9131L51.7028 46.6325L51.8415 47.6215L55.7763 46.9021ZM53.2419 50.4125C54.8717 50.1146 56.0064 48.5429 55.7763 46.9021L51.8415 47.6215C51.7648 47.0745 52.143 46.5506 52.6863 46.4513L53.2419 50.4125ZM50.3281 50.9453L53.2419 50.4125L52.6863 46.4513L49.7725 46.9841L50.3281 50.9453ZM46.9603 48.5139C47.1905 50.1547 48.6983 51.2433 50.3281 50.9453L49.7725 46.9841C50.3158 46.8847 50.8184 47.2476 50.8951 47.7945L46.9603 48.5139ZM46.8119 47.456L46.9603 48.5139L50.8951 47.7945L50.7467 46.7366L46.8119 47.456ZM36.9051 47.3821C37.7121 48.9154 38.7467 50.0338 39.9966 50.7137C41.2516 51.3964 42.5789 51.5582 43.8268 51.4227C46.2257 51.1622 48.4506 49.7926 49.9151 48.7014L47.6436 45.4911C46.3448 46.4589 44.8539 47.279 43.5576 47.4198C42.9578 47.4849 42.4427 47.4003 41.982 47.1497C41.5161 46.8962 40.9617 46.3942 40.4281 45.3804L36.9051 47.3821ZM37.0881 33.6673C36.3358 36.2386 35.9411 38.8912 35.8887 41.2367C35.8378 43.5182 36.1045 45.7537 36.8807 47.3341L40.4525 45.4283C40.0883 44.6869 39.8158 43.2143 39.8615 41.1692C39.9058 39.1881 40.2436 36.8955 40.8946 34.6704L37.0881 33.6673ZM33.0691 29.7823C33.5118 32.9384 35.6333 35.639 38.5798 36.1531L39.403 32.1846C38.4512 32.0186 37.269 30.953 37.0039 29.0629L33.0691 29.7823ZM38.4534 21.0651C34.5294 21.7825 32.5425 26.0279 33.0691 29.7823L37.0039 29.0629C36.6693 26.6772 37.9908 25.2125 39.009 25.0263L38.4534 21.0651ZM45.3068 25.1364C44.1514 22.5134 41.547 20.4995 38.4534 21.0651L39.009 25.0263C39.8349 24.8753 41.0004 25.3827 41.6671 26.8963L45.3068 25.1364ZM47.7098 21.622C45.5189 22.0225 43.6633 23.12 42.1459 24.5856L44.828 27.4471C45.8557 26.4544 46.9947 25.8155 48.2654 25.5832L47.7098 21.622ZM52.9226 22.065C51.315 21.4833 49.5603 21.2836 47.7098 21.622L48.2654 25.5832C49.3743 25.3805 50.4336 25.4924 51.4568 25.8627L52.9226 22.065ZM55.5374 17.9415C52.666 18.4665 50.7918 20.9708 50.2452 23.6281L54.1342 24.2996C54.4388 22.819 55.3204 22.044 56.093 21.9028L55.5374 17.9415ZM63.0367 24.3032C62.5101 20.5488 59.4615 17.2241 55.5374 17.9415L56.093 21.9028C57.1112 21.7166 58.7673 22.6369 59.1019 25.0226L63.0367 24.3032Z" fill="black" mask="url(#path-18-outside-1)"/>
<path d="M49.5857 43.076L50.8901 44.1969L51.8227 42.667L49.5857 43.076Z" fill="black" stroke="black"/>
<rect x="0.561296" y="0.405227" width="1.56108" height="4.80122" rx="0.780539" transform="matrix(0.983694 -0.179853 0.138899 0.990307 44.0842 32.9658)" fill="black" stroke="black"/>
<rect x="0.561296" y="0.405227" width="1.56108" height="4.80122" rx="0.780539" transform="matrix(0.983694 -0.179853 0.138899 0.990307 51.6428 31.5839)" fill="black" stroke="black"/>
<mask id="path-23-inside-2" fill="white">
<path fill-rule="evenodd" clip-rule="evenodd" d="M48.8843 48.3256L48.7188 47.1457C50.0496 45.7398 50.9165 44.387 50.9165 44.387C50.9165 44.387 52.1243 45.4026 53.7723 46.3303L53.9229 47.4044C54.0763 48.4983 53.3199 49.5461 52.2333 49.7447L51.1295 49.9465C50.0429 50.1452 49.0377 49.4195 48.8843 48.3256Z"/>
</mask>
<path d="M48.7188 47.1457L48.0149 46.4641L47.666 46.8327L47.7351 47.3256L48.7188 47.1457ZM50.9165 44.387L51.5686 43.6022L50.7159 42.8853L50.0896 43.8627L50.9165 44.387ZM53.7723 46.3303L54.756 46.1504L54.6894 45.676L54.2805 45.4458L53.7723 46.3303ZM52.2333 49.7447L52.3722 50.735L52.2333 49.7447ZM51.1295 49.9465L50.9906 48.9562L51.1295 49.9465ZM47.7351 47.3256L47.9006 48.5055L49.868 48.1458L49.7025 46.9659L47.7351 47.3256ZM50.9165 44.387C50.0896 43.8627 50.0896 43.8626 50.0897 43.8625C50.0897 43.8625 50.0898 43.8624 50.0898 43.8623C50.0898 43.8622 50.0899 43.8622 50.0899 43.8621C50.09 43.862 50.09 43.862 50.09 43.8621C50.0899 43.8622 50.0896 43.8626 50.0891 43.8634C50.0881 43.8649 50.0863 43.8677 50.0837 43.8717C50.0784 43.8798 50.07 43.8928 50.0583 43.9103C50.0351 43.9454 49.9993 43.9989 49.9518 44.0682C49.8566 44.2069 49.7148 44.4085 49.5325 44.653C49.1669 45.1435 48.6443 45.7992 48.0149 46.4641L49.4227 47.8273C50.1242 47.0863 50.7004 46.3626 51.1009 45.8253C51.3018 45.5559 51.4598 45.3314 51.5688 45.1725C51.6233 45.093 51.6657 45.0298 51.695 44.9855C51.7097 44.9633 51.7211 44.9458 51.7292 44.9334C51.7333 44.9272 51.7365 44.9222 51.7389 44.9185C51.7401 44.9167 51.741 44.9152 51.7418 44.914C51.7422 44.9134 51.7425 44.9129 51.7428 44.9124C51.7429 44.9122 51.7431 44.912 51.7432 44.9119C51.7432 44.9118 51.7433 44.9117 51.7433 44.9116C51.7434 44.9115 51.7435 44.9114 50.9165 44.387ZM54.2805 45.4458C53.4968 45.0047 52.8142 44.5404 52.3268 44.1856C52.0838 44.0086 51.8911 43.8602 51.7605 43.7571C51.6952 43.7055 51.6456 43.6655 51.6131 43.6389C51.5968 43.6257 51.5849 43.6158 51.5774 43.6096C51.5737 43.6065 51.571 43.6043 51.5696 43.6031C51.5688 43.6025 51.5684 43.6021 51.5682 43.6019C51.5681 43.6019 51.5681 43.6019 51.5682 43.6019C51.5682 43.6019 51.5682 43.602 51.5683 43.602C51.5684 43.6021 51.5684 43.6021 51.5684 43.6021C51.5685 43.6022 51.5686 43.6022 50.9165 44.387C50.2645 45.1718 50.2645 45.1719 50.2646 45.172C50.2647 45.172 50.2648 45.1721 50.2648 45.1721C50.265 45.1722 50.2651 45.1724 50.2653 45.1725C50.2657 45.1728 50.2661 45.1732 50.2666 45.1736C50.2676 45.1745 50.2689 45.1755 50.2705 45.1769C50.2737 45.1795 50.2781 45.1832 50.2836 45.1877C50.2946 45.1969 50.3102 45.2097 50.3302 45.226C50.3701 45.2587 50.4277 45.3052 50.5015 45.3633C50.6488 45.4797 50.861 45.643 51.126 45.836C51.6545 46.2208 52.3997 46.7282 53.264 47.2147L54.2805 45.4458ZM54.9066 47.2245L54.756 46.1504L52.7886 46.5101L52.9392 47.5843L54.9066 47.2245ZM52.3722 50.735C54.0021 50.437 55.1367 48.8653 54.9066 47.2245L52.9392 47.5843C53.0159 48.1312 52.6377 48.6551 52.0944 48.7544L52.3722 50.735ZM51.2684 50.9369L52.3722 50.735L52.0944 48.7544L50.9906 48.9562L51.2684 50.9369ZM47.9006 48.5055C48.1307 50.1463 49.6385 51.2348 51.2684 50.9369L50.9906 48.9562C50.4473 49.0556 49.9447 48.6927 49.868 48.1458L47.9006 48.5055Z" fill="black" mask="url(#path-23-inside-2)"/>
<path fill-rule="evenodd" clip-rule="evenodd" d="M38.3209 22.1386C40.8945 21.668 43.3805 23.8687 44.1539 27.1555C43.8162 27.1137 43.4698 27.1136 43.1196 27.1592C42.7856 25.9333 42.1859 24.9154 41.458 24.2054C40.5407 23.3108 39.4723 22.9438 38.4598 23.1289C37.4472 23.314 36.5326 24.0436 35.9059 25.2205C35.279 26.3978 34.9794 27.9671 35.2141 29.6402C35.4488 31.3134 36.1626 32.6974 37.0801 33.5923C37.5764 34.0763 38.1169 34.4059 38.6689 34.5772C38.5163 34.8792 38.3686 35.1877 38.2257 35.502C36.2534 34.8236 34.6261 32.6414 34.2304 29.8201C33.7067 26.0865 35.5381 22.6474 38.3209 22.1386ZM38.9867 31.955C39.1332 30.1896 40.0479 28.6232 41.3982 27.7799C40.969 26.4696 39.9207 25.628 38.8383 25.8259C37.5734 26.0572 36.741 27.6204 36.979 29.3175C37.1716 30.6902 38.0056 31.7301 38.9867 31.955Z" fill="black"/>
<path d="M52.0071 24.7518L52.113 24.9201L52.3076 24.962L54.4902 25.4318L56.9875 26.4103L58.3456 30.2638L58.4745 30.6297L58.8613 30.577L60.57 30.344L62.971 38.2381L54.1761 39.8461C52.2137 40.2049 50.4437 38.7725 50.3752 36.7701L50.3553 36.1909C50.1962 31.542 46.6983 27.9367 42.2671 27.5628L48.7773 22.3152L51.5127 23.9661L52.0071 24.7518Z" fill="black" stroke="black"/>
<rect x="0.561296" y="0.405227" width="1.56108" height="4.80122" rx="0.780539" transform="matrix(0.983694 -0.179853 0.138899 0.990307 52.4822 31.4304)" fill="white" stroke="white"/>
<path fill-rule="evenodd" clip-rule="evenodd" d="M55.9194 18.9211C53.3457 19.3917 51.5621 22.1991 51.6957 25.3785C52.0057 25.2251 52.335 25.1057 52.68 25.0252C52.6624 22.3236 54.2206 20.2474 56.0583 19.9114C58.1072 19.5368 60.4177 21.3412 60.8604 24.4973C61.2058 26.9595 60.2461 29.0455 58.8346 30.0215C59.0748 30.2496 59.3117 30.4861 59.5451 30.7302C61.2426 29.4489 62.2139 26.954 61.8441 24.3174C61.3547 20.8283 58.7021 18.4123 55.9194 18.9211ZM57.8828 27.8496C57.2764 26.3357 55.9916 25.2631 54.4837 24.9814C54.5454 23.6722 55.3204 22.5649 56.4028 22.367C57.6677 22.1357 58.8734 23.2339 59.0959 24.8199C59.2758 26.1028 58.7572 27.3119 57.8828 27.8496Z" fill="black"/>
<line x1="0.5" y1="-0.5" x2="10.201" y2="-0.5" transform="matrix(-0.886874 0.501502 -0.343948 -0.926355 46.458 43.387)" stroke="black" stroke-linecap="round"/>
<line x1="0.5" y1="-0.5" x2="10.028" y2="-0.5" transform="matrix(-0.976752 0.205025 -0.185033 -0.982406 46.1938 42.3175)" stroke="black" stroke-linecap="round"/>
<line x1="0.5" y1="-0.5" x2="10.8664" y2="-0.5" transform="matrix(-0.788449 0.660302 -0.442321 -0.875907 47.4927 44.208)" stroke="black" stroke-linecap="round"/>
<line x1="0.5" y1="-0.5" x2="10.2203" y2="-0.5" transform="matrix(0.96981 0.214881 0.116839 -0.998786 54.2622 42.2284)" stroke="black" stroke-linecap="round"/>
<line x1="0.5" y1="-0.5" x2="10.0482" y2="-0.5" transform="matrix(0.987527 -0.097614 -0.0496545 -1.0048 54.269 41.1173)" stroke="black" stroke-linecap="round"/>
<line x1="0.5" y1="-0.5" x2="10.8826" y2="-0.5" transform="matrix(0.912207 0.397602 0.223534 -0.979753 53.4546 43.3331)" stroke="black" stroke-linecap="round"/>
<defs>
<linearGradient id="paint0_linear" x1="10.5103" y1="8" x2="115.134" y2="45.2889" gradientUnits="userSpaceOnUse">
<stop stop-color="#BB39F9"/>
<stop offset="1" stop-color="#BB39F9" stop-opacity="0"/>
</linearGradient>
</defs>
</svg>
